# xmcd
#
# Track frame offsets:
#	150
#	9578
#	27395
#	42088
#	63996
#	79829
#	93640
#	104975
#	117332
#	128159
#	144762
#	164162
#	174881
#	180724
#	190256
#	207061
#
# Disc length: 2952 seconds
#
# Revision: 0
# Processed by: cddbd v1.5.2PL0 Copyright (c) Steve Scherf et al.
# Submitted via: EasyCDDAExtractor 4.6.9.1
#
DISCID=dd0b8610
DTITLE=Various Artist - Johnny Cash - A Concert Behind Prison Walls
DYEAR=2003
DGENRE=Country
TTITLE0=Folsom Prisom Blues - Johnny Cash
TTITLE1=Sunday Morning Coming Down - Johnny Cash
TTITLE2=Jacob Green - Johnny Cash
TTITLE3=Desperado - Linda Ronstadt
TTITLE4=Comedy Routine - Foster Brooks
TTITLE5=You're No Good - Linda Ronstadt
TTITLE6=Rolling In My Sweet Baby's Arms - Roy Clark
TTITLE7=That Honeymoon Feeling - Roy Clark
TTITLE8=Shuckin' The Corn - Roy Clark
TTITLE9=Half As Much - Foster Brooks
TTITLE10=Love Has No Pride - Linda Ronstadt
TTITLE11=Silver Threads And Golden Needles - Linda Ronstadt
TTITLE12=Hey Porter - Johnny Cash
TTITLE13=Wreck Of The Old Ninety Seven - Johnny Cash
TTITLE14=Orange Blossom Special - Johnny Cash
TTITLE15=A Boy Named Sue - Johnny Cash
EXTD=
EXTT0=
EXTT1=
EXTT2=
EXTT3=
EXTT4=
EXTT5=
EXTT6=
EXTT7=
EXTT8=
EXTT9=
EXTT10=
EXTT11=
EXTT12=
EXTT13=
EXTT14=
EXTT15=
PLAYORDER=
